<svg width="158" height="34" viewBox="0 0 158 34" fill="none" xmlns="http://www.w3.org/2000/svg">
<path d="M0 14.3514C0 6.68024 6.2187 0.461548 13.8898 0.461548V19.6487C13.8898 27.3198 7.67115 33.5385 0 33.5385V14.3514Z" fill="#4A3AFF"/>
<path d="M15.9047 8.00916C15.9047 3.84073 19.2839 0.461548 23.4523 0.461548C27.6208 0.461548 31 3.84073 31 8.00917V8.44495C31 12.6134 27.6208 15.9926 23.4523 15.9926C19.2839 15.9926 15.9047 12.6134 15.9047 8.44495V8.00916Z" fill="#4CBFFF"/>
<path d="M15.9047 25.5551C15.9047 21.3866 19.2839 18.0074 23.4523 18.0074C27.6208 18.0074 31 21.3866 31 25.5551V25.9909C31 30.1593 27.6208 33.5385 23.4523 33.5385C19.2839 33.5385 15.9047 30.1593 15.9047 25.9908V25.5551Z" fill="#9328FF"/>
<path d="M41.04 24C40.9067 24 40.7933 23.9533 40.7 23.86C40.6067 23.7667 40.56 23.6533 40.56 23.52V10.5C40.56 10.3533 40.6067 10.2333 40.7 10.14C40.7933 10.0467 40.9067 10 41.04 10H45.92C47.2667 10 48.3733 10.2067 49.24 10.62C50.12 11.0333 50.78 11.6467 51.22 12.46C51.6733 13.2733 51.9067 14.2667 51.92 15.44C51.9467 16.0267 51.96 16.5467 51.96 17C51.96 17.4533 51.9467 17.9667 51.92 18.54C51.8933 19.78 51.6667 20.8067 51.24 21.62C50.8133 22.42 50.1667 23.02 49.3 23.42C48.4467 23.8067 47.3533 24 46.02 24H41.04ZM43.34 21.7H45.92C46.6667 21.7 47.2733 21.5933 47.74 21.38C48.2067 21.1667 48.5467 20.8267 48.76 20.36C48.9867 19.88 49.1067 19.2533 49.12 18.48C49.1333 18.08 49.14 17.7333 49.14 17.44C49.1533 17.1333 49.1533 16.8333 49.14 16.54C49.14 16.2333 49.1333 15.8867 49.12 15.5C49.0933 14.4067 48.82 13.6 48.3 13.08C47.78 12.56 46.9533 12.3 45.82 12.3H43.34V21.7ZM58.8625 24.2C57.3825 24.2 56.2092 23.7733 55.3425 22.92C54.4758 22.0667 54.0092 20.8533 53.9425 19.28C53.9292 19.1467 53.9225 18.98 53.9225 18.78C53.9225 18.5667 53.9292 18.4 53.9425 18.28C53.9958 17.28 54.2225 16.4133 54.6225 15.68C55.0358 14.9467 55.6025 14.3867 56.3225 14C57.0425 13.6 57.8892 13.4 58.8625 13.4C59.9425 13.4 60.8492 13.6267 61.5825 14.08C62.3158 14.52 62.8692 15.14 63.2425 15.94C63.6158 16.7267 63.8025 17.64 63.8025 18.68V19.1C63.8025 19.2333 63.7558 19.3467 63.6625 19.44C63.5692 19.5333 63.4492 19.58 63.3025 19.58H56.6625C56.6625 19.58 56.6625 19.6 56.6625 19.64C56.6625 19.68 56.6625 19.7133 56.6625 19.74C56.6758 20.2067 56.7625 20.64 56.9225 21.04C57.0958 21.4267 57.3425 21.74 57.6625 21.98C57.9958 22.22 58.3892 22.34 58.8425 22.34C59.2158 22.34 59.5292 22.2867 59.7825 22.18C60.0358 22.06 60.2425 21.9267 60.4025 21.78C60.5625 21.6333 60.6758 21.5133 60.7425 21.42C60.8625 21.26 60.9558 21.1667 61.0225 21.14C61.1025 21.1 61.2158 21.08 61.3625 21.08H63.0825C63.2158 21.08 63.3225 21.12 63.4025 21.2C63.4958 21.28 63.5358 21.38 63.5225 21.5C63.5092 21.7133 63.3958 21.9733 63.1825 22.28C62.9825 22.5867 62.6892 22.8867 62.3025 23.18C61.9158 23.4733 61.4292 23.72 60.8425 23.92C60.2692 24.1067 59.6092 24.2 58.8625 24.2ZM56.6625 17.9H61.0825V17.84C61.0825 17.32 60.9958 16.8667 60.8225 16.48C60.6492 16.0933 60.3958 15.7867 60.0625 15.56C59.7292 15.3333 59.3292 15.22 58.8625 15.22C58.3958 15.22 57.9958 15.3333 57.6625 15.56C57.3292 15.7867 57.0758 16.0933 56.9025 16.48C56.7425 16.8667 56.6625 17.32 56.6625 17.84V17.9ZM69.2344 24C69.021 24 68.861 23.9533 68.7544 23.86C68.661 23.7533 68.581 23.6333 68.5144 23.5L64.7744 14.22C64.7477 14.1533 64.7344 14.0933 64.7344 14.04C64.7344 13.92 64.7744 13.82 64.8544 13.74C64.9477 13.6467 65.0544 13.6 65.1744 13.6H66.7944C66.9544 13.6 67.0744 13.6467 67.1544 13.74C67.2344 13.82 67.2877 13.9 67.3144 13.98L69.9744 21L72.6344 13.98C72.661 13.9 72.7144 13.82 72.7944 13.74C72.8744 13.6467 72.9944 13.6 73.1544 13.6H74.7944C74.901 13.6 74.9944 13.6467 75.0744 13.74C75.1677 13.82 75.2144 13.92 75.2144 14.04C75.2144 14.0933 75.2077 14.1533 75.1944 14.22L71.4344 23.5C71.381 23.6333 71.301 23.7533 71.1944 23.86C71.0877 23.9533 70.9277 24 70.7144 24H69.2344ZM82.6788 24.2C81.4388 24.2 80.3854 23.9867 79.5188 23.56C78.6654 23.12 78.0121 22.5 77.5588 21.7C77.1054 20.8867 76.8521 19.9133 76.7988 18.78C76.7854 18.2333 76.7788 17.6467 76.7788 17.02C76.7788 16.3933 76.7854 15.7933 76.7988 15.22C76.8521 14.1 77.1054 13.1333 77.5588 12.32C78.0254 11.5067 78.6854 10.8867 79.5388 10.46C80.4054 10.02 81.4521 9.8 82.6788 9.8C83.5854 9.8 84.3988 9.92 85.1188 10.16C85.8388 10.4 86.4521 10.7333 86.9588 11.16C87.4654 11.5733 87.8588 12.06 88.1388 12.62C88.4188 13.18 88.5654 13.7867 88.5788 14.44C88.5921 14.56 88.5521 14.66 88.4588 14.74C88.3788 14.82 88.2788 14.86 88.1588 14.86H86.2588C86.1121 14.86 85.9921 14.8267 85.8988 14.76C85.8054 14.68 85.7388 14.5533 85.6988 14.38C85.4854 13.5 85.1188 12.9 84.5988 12.58C84.0788 12.26 83.4321 12.1 82.6588 12.1C81.7654 12.1 81.0521 12.3533 80.5188 12.86C79.9854 13.3533 79.6988 14.1733 79.6588 15.32C79.6188 16.4133 79.6188 17.5333 79.6588 18.68C79.6988 19.8267 79.9854 20.6533 80.5188 21.16C81.0521 21.6533 81.7654 21.9 82.6588 21.9C83.4321 21.9 84.0788 21.74 84.5988 21.42C85.1188 21.0867 85.4854 20.4867 85.6988 19.62C85.7388 19.4333 85.8054 19.3067 85.8988 19.24C85.9921 19.1733 86.1121 19.14 86.2588 19.14H88.1588C88.2788 19.14 88.3788 19.18 88.4588 19.26C88.5521 19.34 88.5921 19.44 88.5788 19.56C88.5654 20.2133 88.4188 20.82 88.1388 21.38C87.8588 21.94 87.4654 22.4333 86.9588 22.86C86.4521 23.2733 85.8388 23.6 85.1188 23.84C84.3988 24.08 83.5854 24.2 82.6788 24.2ZM95.3106 24.2C94.244 24.2 93.344 24.0133 92.6106 23.64C91.8906 23.2667 91.3373 22.74 90.9506 22.06C90.5773 21.38 90.364 20.5867 90.3106 19.68C90.2973 19.44 90.2906 19.1467 90.2906 18.8C90.2906 18.4533 90.2973 18.16 90.3106 17.92C90.364 17 90.584 16.2067 90.9706 15.54C91.3706 14.86 91.9306 14.3333 92.6506 13.96C93.384 13.5867 94.2706 13.4 95.3106 13.4C96.3506 13.4 97.2306 13.5867 97.9506 13.96C98.684 14.3333 99.244 14.86 99.6306 15.54C100.031 16.2067 100.257 17 100.311 17.92C100.324 18.16 100.331 18.4533 100.331 18.8C100.331 19.1467 100.324 19.44 100.311 19.68C100.257 20.5867 100.037 21.38 99.6506 22.06C99.2773 22.74 98.724 23.2667 97.9906 23.64C97.2706 24.0133 96.3773 24.2 95.3106 24.2ZM95.3106 22.22C96.0173 22.22 96.564 22 96.9506 21.56C97.3373 21.1067 97.5506 20.4467 97.5906 19.58C97.604 19.38 97.6106 19.12 97.6106 18.8C97.6106 18.48 97.604 18.22 97.5906 18.02C97.5506 17.1667 97.3373 16.5133 96.9506 16.06C96.564 15.6067 96.0173 15.38 95.3106 15.38C94.604 15.38 94.0573 15.6067 93.6706 16.06C93.284 16.5133 93.0706 17.1667 93.0306 18.02C93.0173 18.22 93.0106 18.48 93.0106 18.8C93.0106 19.12 93.0173 19.38 93.0306 19.58C93.0706 20.4467 93.284 21.1067 93.6706 21.56C94.0573 22 94.604 22.22 95.3106 22.22ZM103.027 24C102.893 24 102.78 23.9533 102.687 23.86C102.593 23.7667 102.547 23.6533 102.547 23.52V14.08C102.547 13.9467 102.593 13.8333 102.687 13.74C102.78 13.6467 102.893 13.6 103.027 13.6H104.667C104.8 13.6 104.913 13.6467 105.007 13.74C105.1 13.8333 105.147 13.9467 105.147 14.08V14.9C105.493 14.4733 105.933 14.12 106.467 13.84C107.013 13.5467 107.687 13.4 108.487 13.4C109.3 13.4 110.007 13.5867 110.607 13.96C111.207 14.32 111.667 14.8333 111.987 15.5C112.32 16.1667 112.487 16.9667 112.487 17.9V23.52C112.487 23.6533 112.44 23.7667 112.347 23.86C112.253 23.9533 112.14 24 112.007 24H110.247C110.113 24 110 23.9533 109.907 23.86C109.813 23.7667 109.767 23.6533 109.767 23.52V18.02C109.767 17.2467 109.573 16.64 109.187 16.2C108.813 15.76 108.267 15.54 107.547 15.54C106.853 15.54 106.3 15.76 105.887 16.2C105.473 16.64 105.267 17.2467 105.267 18.02V23.52C105.267 23.6533 105.22 23.7667 105.127 23.86C105.033 23.9533 104.92 24 104.787 24H103.027ZM115.507 24C115.374 24 115.26 23.9533 115.167 23.86C115.074 23.7667 115.027 23.6533 115.027 23.52V14.08C115.027 13.9467 115.074 13.8333 115.167 13.74C115.26 13.6467 115.374 13.6 115.507 13.6H117.147C117.28 13.6 117.394 13.6467 117.487 13.74C117.58 13.8333 117.627 13.9467 117.627 14.08V14.9C117.974 14.4733 118.414 14.12 118.947 13.84C119.494 13.5467 120.167 13.4 120.967 13.4C121.78 13.4 122.487 13.5867 123.087 13.96C123.687 14.32 124.147 14.8333 124.467 15.5C124.8 16.1667 124.967 16.9667 124.967 17.9V23.52C124.967 23.6533 124.92 23.7667 124.827 23.86C124.734 23.9533 124.62 24 124.487 24H122.727C122.594 24 122.48 23.9533 122.387 23.86C122.294 23.7667 122.247 23.6533 122.247 23.52V18.02C122.247 17.2467 122.054 16.64 121.667 16.2C121.294 15.76 120.747 15.54 120.027 15.54C119.334 15.54 118.78 15.76 118.367 16.2C117.954 16.64 117.747 17.2467 117.747 18.02V23.52C117.747 23.6533 117.7 23.7667 117.607 23.86C117.514 23.9533 117.4 24 117.267 24H115.507ZM131.988 24.2C130.508 24.2 129.334 23.7733 128.468 22.92C127.601 22.0667 127.134 20.8533 127.068 19.28C127.054 19.1467 127.048 18.98 127.048 18.78C127.048 18.5667 127.054 18.4 127.068 18.28C127.121 17.28 127.348 16.4133 127.748 15.68C128.161 14.9467 128.728 14.3867 129.448 14C130.168 13.6 131.014 13.4 131.988 13.4C133.068 13.4 133.974 13.6267 134.708 14.08C135.441 14.52 135.994 15.14 136.368 15.94C136.741 16.7267 136.928 17.64 136.928 18.68V19.1C136.928 19.2333 136.881 19.3467 136.788 19.44C136.694 19.5333 136.574 19.58 136.428 19.58H129.788C129.788 19.58 129.788 19.6 129.788 19.64C129.788 19.68 129.788 19.7133 129.788 19.74C129.801 20.2067 129.888 20.64 130.048 21.04C130.221 21.4267 130.468 21.74 130.788 21.98C131.121 22.22 131.514 22.34 131.968 22.34C132.341 22.34 132.654 22.2867 132.908 22.18C133.161 22.06 133.368 21.9267 133.528 21.78C133.688 21.6333 133.801 21.5133 133.868 21.42C133.988 21.26 134.081 21.1667 134.148 21.14C134.228 21.1 134.341 21.08 134.488 21.08H136.208C136.341 21.08 136.448 21.12 136.528 21.2C136.621 21.28 136.661 21.38 136.648 21.5C136.634 21.7133 136.521 21.9733 136.308 22.28C136.108 22.5867 135.814 22.8867 135.428 23.18C135.041 23.4733 134.554 23.72 133.968 23.92C133.394 24.1067 132.734 24.2 131.988 24.2ZM129.788 17.9H134.208V17.84C134.208 17.32 134.121 16.8667 133.948 16.48C133.774 16.0933 133.521 15.7867 133.188 15.56C132.854 15.3333 132.454 15.22 131.988 15.22C131.521 15.22 131.121 15.3333 130.788 15.56C130.454 15.7867 130.201 16.0933 130.028 16.48C129.868 16.8667 129.788 17.32 129.788 17.84V17.9ZM143.55 24.2C142.59 24.2 141.744 24.02 141.01 23.66C140.29 23.3 139.724 22.78 139.31 22.1C138.91 21.4067 138.69 20.5733 138.65 19.6C138.637 19.4 138.63 19.14 138.63 18.82C138.63 18.4867 138.637 18.2133 138.65 18C138.69 17.0267 138.91 16.2 139.31 15.52C139.724 14.8267 140.29 14.3 141.01 13.94C141.744 13.58 142.59 13.4 143.55 13.4C144.404 13.4 145.13 13.52 145.73 13.76C146.33 14 146.824 14.3 147.21 14.66C147.597 15.02 147.884 15.4 148.07 15.8C148.27 16.1867 148.377 16.54 148.39 16.86C148.404 17.0067 148.357 17.1267 148.25 17.22C148.157 17.3 148.044 17.34 147.91 17.34H146.15C146.017 17.34 145.91 17.3067 145.83 17.24C145.764 17.1733 145.697 17.0733 145.63 16.94C145.43 16.4067 145.164 16.0333 144.83 15.82C144.51 15.5933 144.097 15.48 143.59 15.48C142.924 15.48 142.39 15.6933 141.99 16.12C141.604 16.5333 141.397 17.1933 141.37 18.1C141.344 18.6067 141.344 19.0733 141.37 19.5C141.397 20.42 141.604 21.0867 141.99 21.5C142.39 21.9133 142.924 22.12 143.59 22.12C144.11 22.12 144.53 22.0133 144.85 21.8C145.17 21.5733 145.43 21.1933 145.63 20.66C145.697 20.5267 145.764 20.4267 145.83 20.36C145.91 20.2933 146.017 20.26 146.15 20.26H147.91C148.044 20.26 148.157 20.3067 148.25 20.4C148.357 20.48 148.404 20.5933 148.39 20.74C148.377 20.98 148.31 21.2533 148.19 21.56C148.084 21.8533 147.904 22.16 147.65 22.48C147.41 22.7867 147.104 23.0733 146.73 23.34C146.357 23.5933 145.904 23.8 145.37 23.96C144.85 24.12 144.244 24.2 143.55 24.2ZM155.176 24C154.376 24 153.703 23.86 153.156 23.58C152.61 23.3 152.203 22.8867 151.936 22.34C151.67 21.78 151.536 21.0867 151.536 20.26V15.72H149.956C149.823 15.72 149.71 15.6733 149.616 15.58C149.523 15.4867 149.476 15.3733 149.476 15.24V14.08C149.476 13.9467 149.523 13.8333 149.616 13.74C149.71 13.6467 149.823 13.6 149.956 13.6H151.536V10.28C151.536 10.1467 151.576 10.0333 151.656 9.94C151.75 9.84667 151.87 9.8 152.016 9.8H153.636C153.77 9.8 153.883 9.84667 153.976 9.94C154.07 10.0333 154.116 10.1467 154.116 10.28V13.6H156.616C156.75 13.6 156.863 13.6467 156.956 13.74C157.05 13.8333 157.096 13.9467 157.096 14.08V15.24C157.096 15.3733 157.05 15.4867 156.956 15.58C156.863 15.6733 156.75 15.72 156.616 15.72H154.116V20.06C154.116 20.6067 154.21 21.0333 154.396 21.34C154.596 21.6467 154.936 21.8 155.416 21.8H156.796C156.93 21.8 157.043 21.8467 157.136 21.94C157.23 22.0333 157.276 22.1467 157.276 22.28V23.52C157.276 23.6533 157.23 23.7667 157.136 23.86C157.043 23.9533 156.93 24 156.796 24H155.176Z" fill="black"/>
</svg>
